# 3ds Max Wavefront OBJ Exporter v0.97b - (c)2007 guruware
# File Created: 29.11.2014 18:18:12

#
# object Cylinder001
#

v  0.020000 -0.125000 -0.000000
v  0.014142 -0.125000 -0.014142
v  0.014142 0.125000 -0.014142
v  0.020000 0.125000 -0.000000
v  -0.000000 -0.125000 -0.020000
v  -0.000000 0.125000 -0.020000
v  -0.014142 -0.125000 -0.014142
v  -0.014142 0.125000 -0.014142
v  -0.020000 -0.125000 0.000000
v  -0.020000 0.125000 0.000000
v  -0.014142 -0.125000 0.014142
v  -0.014142 0.125000 0.014142
v  0.000000 -0.125000 0.020000
v  0.000000 0.125000 0.020000
v  0.014142 -0.125000 0.014142
v  0.014142 0.125000 0.014142
v  0.021522 0.125000 -0.021522
v  0.030437 0.125000 -0.000000
v  -0.000000 0.125000 -0.030437
v  -0.021522 0.125000 -0.021522
v  -0.030437 0.125000 0.000000
v  -0.021522 0.125000 0.021522
v  0.000000 0.125000 0.030437
v  0.021522 0.125000 0.021522
v  0.024882 0.131304 -0.024882
v  0.035188 0.131304 -0.000000
v  -0.000000 0.131304 -0.035188
v  -0.024882 0.131304 -0.024882
v  -0.035188 0.131304 0.000000
v  -0.024882 0.131304 0.024882
v  0.000000 0.131304 0.035188
v  0.024882 0.131304 0.024882
v  0.029441 0.190219 -0.029441
v  0.041635 0.190219 0.000000
v  -0.000000 0.190219 -0.041635
v  -0.029441 0.190219 -0.029441
v  -0.041635 0.190219 0.000000
v  -0.029441 0.190219 0.029441
v  0.000000 0.190219 0.041635
v  0.029441 0.190219 0.029441
v  0.037825 0.199234 -0.037825
v  0.053493 0.199234 0.000000
v  -0.000000 0.199234 -0.053493
v  -0.037825 0.199234 -0.037825
v  -0.053493 0.199234 0.000000
v  -0.037825 0.199234 0.037825
v  0.000000 0.199234 0.053493
v  0.037825 0.199234 0.037825
v  0.084206 0.224104 -0.084206
v  0.119085 0.224104 0.000000
v  -0.000000 0.224104 -0.119085
v  -0.084206 0.224104 -0.084206
v  -0.119085 0.224104 0.000000
v  -0.084206 0.224104 0.084206
v  0.000000 0.224104 0.119085
v  0.084206 0.224104 0.084206
v  0.090774 0.233610 -0.090774
v  0.128374 0.233610 0.000000
v  -0.000000 0.233610 -0.128374
v  -0.090774 0.233610 -0.090774
v  -0.128374 0.233610 0.000000
v  -0.090774 0.233610 0.090774
v  0.000000 0.233610 0.128374
v  0.090774 0.233610 0.090774
v  0.096922 0.273602 -0.096922
v  0.137068 0.273602 0.000000
v  -0.000000 0.273602 -0.137068
v  -0.096922 0.273602 -0.096922
v  -0.137068 0.273602 0.000000
v  -0.096922 0.273602 0.096922
v  0.000000 0.273602 0.137068
v  0.096922 0.273602 0.096922
v  0.101845 0.282162 -0.101845
v  0.144030 0.282162 0.000000
v  -0.000000 0.282162 -0.144030
v  -0.101845 0.282162 -0.101845
v  -0.144030 0.282162 0.000000
v  -0.101845 0.282162 0.101845
v  0.000000 0.282162 0.144030
v  0.101845 0.282162 0.101845
v  0.097113 0.286984 -0.097113
v  0.137338 0.286984 0.000000
v  -0.000000 0.286984 -0.137338
v  -0.097113 0.286984 -0.097113
v  -0.137338 0.286984 0.000000
v  -0.097113 0.286984 0.097113
v  0.000000 0.286984 0.137338
v  0.097113 0.286984 0.097113
v  0.084463 0.269385 -0.084463
v  0.119449 0.269385 0.000000
v  -0.000000 0.269385 -0.119449
v  -0.084463 0.269385 -0.084463
v  -0.119449 0.269385 0.000000
v  -0.084463 0.269385 0.084463
v  0.000000 0.269385 0.119449
v  0.084463 0.269385 0.084463
v  0.067231 0.229375 -0.067231
v  0.095078 0.229375 0.000000
v  -0.000000 0.229375 -0.095078
v  -0.067231 0.229375 -0.067231
v  -0.095078 0.229375 0.000000
v  -0.067231 0.229375 0.067231
v  0.000000 0.229375 0.095078
v  0.067231 0.229375 0.067231
v  0.033730 0.214351 -0.033730
v  0.047702 0.214351 0.000000
v  -0.000000 0.214351 -0.047702
v  -0.033730 0.214351 -0.033730
v  -0.047702 0.214351 0.000000
v  -0.033730 0.214351 0.033730
v  0.000000 0.214351 0.047702
v  0.033730 0.214351 0.033730
# 112 vertices

vn 0.776382 -0.630262 -0.000000
vn 0.548985 -0.630262 -0.548985
vn 0.420288 -0.804186 -0.420288
vn 0.594377 -0.804186 0.000000
vn -0.000000 -0.630262 -0.776382
vn -0.000000 -0.804186 -0.594377
vn -0.548985 -0.630262 -0.548985
vn -0.420288 -0.804186 -0.420288
vn -0.776382 -0.630262 0.000000
vn -0.594377 -0.804186 0.000000
vn -0.548985 -0.630262 0.548985
vn -0.420288 -0.804186 0.420288
vn 0.000000 -0.630262 0.776382
vn -0.000000 -0.804186 0.594377
vn 0.548985 -0.630262 0.548985
vn 0.420288 -0.804186 0.420288
vn 0.372160 -0.850290 -0.372160
vn 0.526314 -0.850290 0.000000
vn 0.000000 -0.850290 -0.526314
vn -0.372160 -0.850290 -0.372160
vn -0.526314 -0.850290 0.000000
vn -0.372160 -0.850290 0.372160
vn -0.000000 -0.850290 0.526314
vn 0.372160 -0.850290 0.372160
vn 0.662889 -0.348077 -0.662889
vn 0.937466 -0.348077 0.000000
vn -0.000000 -0.348077 -0.937466
vn -0.662889 -0.348077 -0.662889
vn -0.937466 -0.348077 0.000000
vn -0.662888 -0.348077 0.662889
vn -0.000000 -0.348077 0.937466
vn 0.662889 -0.348077 0.662889
vn 0.595608 -0.538982 -0.595608
vn 0.842318 -0.538982 0.000000
vn 0.000000 -0.538982 -0.842318
vn -0.595608 -0.538982 -0.595608
vn -0.842318 -0.538981 0.000000
vn -0.595608 -0.538982 0.595609
vn -0.000000 -0.538981 0.842318
vn 0.595608 -0.538982 0.595608
vn 0.322935 -0.889621 -0.322935
vn 0.456699 -0.889621 0.000000
vn -0.000000 -0.889621 -0.456699
vn -0.322935 -0.889621 -0.322935
vn -0.456699 -0.889621 0.000000
vn -0.322935 -0.889621 0.322935
vn -0.000000 -0.889621 0.456699
vn 0.322935 -0.889621 0.322935
vn 0.412260 -0.812456 -0.412260
vn 0.583023 -0.812455 0.000000
vn 0.000000 -0.812455 -0.583024
vn -0.412260 -0.812455 -0.412260
vn -0.583023 -0.812455 0.000000
vn -0.412260 -0.812455 0.412260
vn 0.000000 -0.812456 0.583023
vn 0.412260 -0.812455 0.412260
vn 0.632188 -0.447969 -0.632188
vn 0.894049 -0.447969 0.000000
vn -0.000000 -0.447969 -0.894049
vn -0.632188 -0.447969 -0.632188
vn -0.894049 -0.447969 0.000000
vn -0.632188 -0.447969 0.632188
vn 0.000000 -0.447969 0.894049
vn 0.632188 -0.447969 0.632188
vn 0.628805 -0.457394 -0.628805
vn 0.889264 -0.457395 0.000000
vn -0.000000 -0.457395 -0.889264
vn -0.628805 -0.457394 -0.628805
vn -0.889264 -0.457395 0.000000
vn -0.628804 -0.457395 0.628805
vn -0.000000 -0.457394 0.889264
vn 0.628804 -0.457395 0.628805
vn 0.702574 0.113042 -0.702574
vn 0.993590 0.113042 0.000000
vn -0.000000 0.113042 -0.993590
vn -0.702574 0.113042 -0.702574
vn -0.993590 0.113042 0.000000
vn -0.702574 0.113042 0.702575
vn -0.000000 0.113041 0.993590
vn 0.702574 0.113042 0.702574
vn 0.059373 0.996469 -0.059373
vn 0.083964 0.996469 0.000000
vn 0.000000 0.996469 -0.083965
vn -0.059372 0.996469 -0.059372
vn -0.083965 0.996469 -0.000000
vn -0.059372 0.996469 0.059373
vn -0.000000 0.996469 0.083965
vn 0.059372 0.996469 0.059372
vn -0.545448 0.636375 0.545448
vn -0.771380 0.636375 -0.000000
vn 0.000000 0.636375 0.771380
vn 0.545448 0.636375 0.545448
vn 0.771380 0.636375 -0.000000
vn 0.545448 0.636375 -0.545448
vn 0.000000 0.636375 -0.771380
vn -0.545448 0.636375 -0.545448
vn -0.470718 0.746223 0.470718
vn -0.665696 0.746223 -0.000000
vn 0.000000 0.746223 0.665696
vn 0.470718 0.746223 0.470718
vn 0.665696 0.746223 -0.000000
vn 0.470718 0.746223 -0.470718
vn 0.000000 0.746223 -0.665696
vn -0.470718 0.746223 -0.470718
vn -0.134186 0.981829 0.134186
vn -0.189767 0.981829 -0.000000
vn 0.000000 0.981829 0.189767
vn 0.134186 0.981829 0.134186
vn 0.189767 0.981829 -0.000000
vn 0.134186 0.981829 -0.134186
vn 0.000000 0.981829 -0.189767
vn -0.134186 0.981829 -0.134186
# 112 vertex normals

vt 0.750000 0.000000 1.000000
vt 0.875000 0.000000 1.000000
vt 0.875000 1.000000 1.000000
vt 0.750000 1.000000 1.000000
vt 1.000000 0.000000 1.000000
vt 1.000000 1.000000 1.000000
vt 0.000000 0.000000 1.000000
vt 0.125000 0.000000 1.000000
vt 0.125000 1.000000 1.000000
vt 0.000000 1.000000 1.000000
vt 0.250000 0.000000 1.000000
vt 0.250000 1.000000 1.000000
vt 0.375000 0.000000 1.000000
vt 0.375000 1.000000 1.000000
vt 0.500000 0.000000 1.000000
vt 0.500000 1.000000 1.000000
vt 0.625000 0.000000 1.000000
vt 0.625000 1.000000 1.000000
vt 1.000000 0.500000 -0.250000
vt 0.853553 0.146447 -0.250000
vt 0.500000 0.000000 -0.250000
vt 0.500000 1.000000 -0.250000
vt 0.146447 0.146447 -0.250000
vt 0.000000 0.500000 -0.250000
vt 0.146447 0.853553 -0.250000
vt 0.853553 0.853553 -0.250000
# 26 texture coords

g Cylinder001
s 1
f 1/1/1 2/2/2 3/3/3 4/4/4 
f 2/2/2 5/5/5 6/6/6 3/3/3 
f 5/7/5 7/8/7 8/9/8 6/10/6 
f 7/8/7 9/11/9 10/12/10 8/9/8 
f 9/11/9 11/13/11 12/14/12 10/12/10 
f 11/13/11 13/15/13 14/16/14 12/14/12 
f 13/15/13 15/17/15 16/18/16 14/16/14 
f 15/17/15 1/1/1 4/4/4 16/18/16 
f 13/19/13 11/20/11 9/21/9 1/22/1 
f 9/21/9 7/23/7 5/24/5 1/22/1 
f 5/24/5 2/25/2 1/22/1 
f 15/26/15 13/19/13 1/22/1 
f 4/4/4 3/3/3 17/3/17 18/4/18 
f 3/3/3 6/6/6 19/6/19 17/3/17 
f 6/10/6 8/9/8 20/9/20 19/10/19 
f 8/9/8 10/12/10 21/12/21 20/9/20 
f 10/12/10 12/14/12 22/14/22 21/12/21 
f 12/14/12 14/16/14 23/16/23 22/14/22 
f 14/16/14 16/18/16 24/18/24 23/16/23 
f 16/18/16 4/4/4 18/4/18 24/18/24 
f 18/4/18 17/3/17 25/3/25 26/4/26 
f 17/3/17 19/6/19 27/6/27 25/3/25 
f 19/10/19 20/9/20 28/9/28 27/10/27 
f 20/9/20 21/12/21 29/12/29 28/9/28 
f 21/12/21 22/14/22 30/14/30 29/12/29 
f 22/14/22 23/16/23 31/16/31 30/14/30 
f 23/16/23 24/18/24 32/18/32 31/16/31 
f 24/18/24 18/4/18 26/4/26 32/18/32 
f 26/4/26 25/3/25 33/3/33 34/4/34 
f 25/3/25 27/6/27 35/6/35 33/3/33 
f 27/10/27 28/9/28 36/9/36 35/10/35 
f 28/9/28 29/12/29 37/12/37 36/9/36 
f 29/12/29 30/14/30 38/14/38 37/12/37 
f 30/14/30 31/16/31 39/16/39 38/14/38 
f 31/16/31 32/18/32 40/18/40 39/16/39 
f 32/18/32 26/4/26 34/4/34 40/18/40 
f 34/4/34 33/3/33 41/3/41 42/4/42 
f 33/3/33 35/6/35 43/6/43 41/3/41 
f 35/10/35 36/9/36 44/9/44 43/10/43 
f 36/9/36 37/12/37 45/12/45 44/9/44 
f 37/12/37 38/14/38 46/14/46 45/12/45 
f 38/14/38 39/16/39 47/16/47 46/14/46 
f 39/16/39 40/18/40 48/18/48 47/16/47 
f 40/18/40 34/4/34 42/4/42 48/18/48 
f 42/4/42 41/3/41 49/3/49 50/4/50 
f 41/3/41 43/6/43 51/6/51 49/3/49 
f 43/10/43 44/9/44 52/9/52 51/10/51 
f 44/9/44 45/12/45 53/12/53 52/9/52 
f 45/12/45 46/14/46 54/14/54 53/12/53 
f 46/14/46 47/16/47 55/16/55 54/14/54 
f 47/16/47 48/18/48 56/18/56 55/16/55 
f 48/18/48 42/4/42 50/4/50 56/18/56 
f 50/4/50 49/3/49 57/3/57 58/4/58 
f 49/3/49 51/6/51 59/6/59 57/3/57 
f 51/10/51 52/9/52 60/9/60 59/10/59 
f 52/9/52 53/12/53 61/12/61 60/9/60 
f 53/12/53 54/14/54 62/14/62 61/12/61 
f 54/14/54 55/16/55 63/16/63 62/14/62 
f 55/16/55 56/18/56 64/18/64 63/16/63 
f 56/18/56 50/4/50 58/4/58 64/18/64 
f 58/4/58 57/3/57 65/3/65 66/4/66 
f 57/3/57 59/6/59 67/6/67 65/3/65 
f 59/10/59 60/9/60 68/9/68 67/10/67 
f 60/9/60 61/12/61 69/12/69 68/9/68 
f 61/12/61 62/14/62 70/14/70 69/12/69 
f 62/14/62 63/16/63 71/16/71 70/14/70 
f 63/16/63 64/18/64 72/18/72 71/16/71 
f 64/18/64 58/4/58 66/4/66 72/18/72 
f 66/4/66 65/3/65 73/3/73 74/4/74 
f 65/3/65 67/6/67 75/6/75 73/3/73 
f 67/10/67 68/9/68 76/9/76 75/10/75 
f 68/9/68 69/12/69 77/12/77 76/9/76 
f 69/12/69 70/14/70 78/14/78 77/12/77 
f 70/14/70 71/16/71 79/16/79 78/14/78 
f 71/16/71 72/18/72 80/18/80 79/16/79 
f 72/18/72 66/4/66 74/4/74 80/18/80 
f 74/4/74 73/3/73 81/3/81 82/4/82 
f 73/3/73 75/6/75 83/6/83 81/3/81 
f 75/10/75 76/9/76 84/9/84 83/10/83 
f 76/9/76 77/12/77 85/12/85 84/9/84 
f 77/12/77 78/14/78 86/14/86 85/12/85 
f 78/14/78 79/16/79 87/16/87 86/14/86 
f 79/16/79 80/18/80 88/18/88 87/16/87 
f 80/18/80 74/4/74 82/4/82 88/18/88 
f 82/4/82 81/3/81 89/3/89 90/4/90 
f 81/3/81 83/6/83 91/6/91 89/3/89 
f 83/10/83 84/9/84 92/9/92 91/10/91 
f 84/9/84 85/12/85 93/12/93 92/9/92 
f 85/12/85 86/14/86 94/14/94 93/12/93 
f 86/14/86 87/16/87 95/16/95 94/14/94 
f 87/16/87 88/18/88 96/18/96 95/16/95 
f 88/18/88 82/4/82 90/4/90 96/18/96 
f 90/4/90 89/3/89 97/3/97 98/4/98 
f 89/3/89 91/6/91 99/6/99 97/3/97 
f 91/10/91 92/9/92 100/9/100 99/10/99 
f 92/9/92 93/12/93 101/12/101 100/9/100 
f 93/12/93 94/14/94 102/14/102 101/12/101 
f 94/14/94 95/16/95 103/16/103 102/14/102 
f 95/16/95 96/18/96 104/18/104 103/16/103 
f 96/18/96 90/4/90 98/4/98 104/18/104 
f 98/4/98 97/3/97 105/3/105 106/4/106 
f 97/3/97 99/6/99 107/6/107 105/3/105 
f 99/10/99 100/9/100 108/9/108 107/10/107 
f 100/9/100 101/12/101 109/12/109 108/9/108 
f 101/12/101 102/14/102 110/14/110 109/12/109 
f 102/14/102 103/16/103 111/16/111 110/14/110 
f 103/16/103 104/18/104 112/18/112 111/16/111 
f 104/18/104 98/4/98 106/4/106 112/18/112 
f 107/6/107 108/9/108 109/12/109 106/4/106 
f 109/12/109 110/14/110 111/16/111 106/4/106 
f 111/16/111 112/18/112 106/4/106 
f 105/3/105 107/6/107 106/4/106 
# 108 polygons - 4 triangles

