# 3ds Max Wavefront OBJ Exporter v0.97b - (c)2007 guruware
# File Created: 29.11.2014 18:06:07

#
# object Cone001
#

v  0.120083 -0.119647 0.000725
v  0.084935 -0.119647 -0.084128
v  0.094765 -0.024597 -0.093958
v  0.133983 -0.024597 0.000725
v  0.000083 -0.119647 -0.119275
v  0.000083 -0.024597 -0.133176
v  -0.084770 -0.119647 -0.084128
v  -0.094600 -0.024597 -0.093958
v  -0.119917 -0.119647 0.000725
v  -0.133818 -0.024597 0.000725
v  -0.084770 -0.119647 0.085577
v  -0.094600 -0.024597 0.095407
v  0.000083 -0.119647 0.120725
v  0.000083 -0.024597 0.134625
v  0.084935 -0.119647 0.085577
v  0.094765 -0.024597 0.095407
v  0.084148 0.049016 -0.083341
v  0.118969 0.049016 0.000725
v  0.000083 0.049016 -0.118162
v  -0.083983 0.049016 -0.083341
v  -0.118804 0.049016 0.000725
v  -0.083983 0.049016 0.084790
v  0.000083 0.049016 0.119611
v  0.084148 0.049016 0.084790
v  0.050497 0.130170 -0.049690
v  0.071379 0.130170 0.000725
v  0.000083 0.130170 -0.070572
v  -0.050331 0.130170 -0.049690
v  -0.071214 0.130170 0.000725
v  -0.050331 0.130170 0.051139
v  0.000083 0.130170 0.072021
v  0.050497 0.130170 0.051139
v  0.000083 0.130353 0.000725
# 33 vertices

vn 0.989474 -0.144708 -0.000000
vn 0.699664 -0.144708 -0.699664
vn 0.706851 0.026884 -0.706851
vn 0.999639 0.026884 -0.000000
vn -0.000000 -0.144708 -0.989474
vn -0.000000 0.026884 -0.999639
vn -0.699664 -0.144708 -0.699664
vn -0.706851 0.026884 -0.706851
vn -0.989474 -0.144708 0.000000
vn -0.999639 0.026884 0.000000
vn -0.699664 -0.144708 0.699664
vn -0.706851 0.026884 0.706851
vn -0.000000 -0.144708 0.989474
vn -0.000000 0.026884 0.999639
vn 0.699664 -0.144708 0.699664
vn 0.706851 0.026884 0.706851
vn 0.663698 0.344978 -0.663698
vn 0.938611 0.344978 0.000000
vn -0.000000 0.344978 -0.938611
vn -0.663698 0.344978 -0.663698
vn -0.938611 0.344978 0.000000
vn -0.663698 0.344978 0.663698
vn 0.000000 0.344978 0.938611
vn 0.663698 0.344978 0.663698
vn 0.609963 0.505855 -0.609963
vn 0.862619 0.505855 0.000000
vn -0.000000 0.505855 -0.862619
vn -0.609964 0.505855 -0.609963
vn -0.862619 0.505855 0.000000
vn -0.609963 0.505855 0.609964
vn -0.000000 0.505855 0.862619
vn 0.609963 0.505855 0.609964
vn 1.000000 0.000000 -0.000000
vn 0.000000 1.000000 0.000000
vn 0.000000 1.000000 -0.000000
vn -0.000000 1.000000 0.000000
# 36 vertex normals

vt 0.750000 0.000000 1.000000
vt 0.875000 0.000000 1.000000
vt 0.875000 0.200000 0.800000
vt 0.750000 0.200000 0.800000
vt 1.000000 0.000000 1.000000
vt 1.000000 0.200000 0.800000
vt 0.000000 0.000000 1.000000
vt 0.125000 0.000000 1.000000
vt 0.125000 0.200000 0.800000
vt 0.000000 0.200000 0.800000
vt 0.250000 0.000000 1.000000
vt 0.250000 0.200000 0.800000
vt 0.375000 0.000000 1.000000
vt 0.375000 0.200000 0.800000
vt 0.500000 0.000000 1.000000
vt 0.500000 0.200000 0.800000
vt 0.625000 0.000000 1.000000
vt 0.625000 0.200000 0.800000
vt 0.875000 0.400000 0.600000
vt 0.750000 0.400000 0.600000
vt 1.000000 0.400000 0.600000
vt 0.125000 0.400000 0.600000
vt 0.000000 0.400000 0.600000
vt 0.250000 0.400000 0.600000
vt 0.375000 0.400000 0.600000
vt 0.500000 0.400000 0.600000
vt 0.625000 0.400000 0.600000
vt 0.875000 0.600000 0.400000
vt 0.750000 0.600000 0.400000
vt 1.000000 0.600000 0.400000
vt 0.125000 0.600000 0.400000
vt 0.000000 0.600000 0.400000
vt 0.250000 0.600000 0.400000
vt 0.375000 0.600000 0.400000
vt 0.500000 0.600000 0.400000
vt 0.625000 0.600000 0.400000
vt 0.500000 1.000000 0.000000
# 37 texture coords

g Cone001
s 8
f 1/1/1 2/2/2 3/3/3 4/4/4 
f 2/2/2 5/5/5 6/6/6 3/3/3 
f 5/7/5 7/8/7 8/9/8 6/10/6 
f 7/8/7 9/11/9 10/12/10 8/9/8 
f 9/11/9 11/13/11 12/14/12 10/12/10 
f 11/13/11 13/15/13 14/16/14 12/14/12 
f 13/15/13 15/17/15 16/18/16 14/16/14 
f 15/17/15 1/1/1 4/4/4 16/18/16 
f 4/4/4 3/3/3 17/19/17 18/20/18 
f 3/3/3 6/6/6 19/21/19 17/19/17 
f 6/10/6 8/9/8 20/22/20 19/23/19 
f 8/9/8 10/12/10 21/24/21 20/22/20 
f 10/12/10 12/14/12 22/25/22 21/24/21 
f 12/14/12 14/16/14 23/26/23 22/25/22 
f 14/16/14 16/18/16 24/27/24 23/26/23 
f 16/18/16 4/4/4 18/20/18 24/27/24 
f 18/20/18 17/19/17 25/28/25 26/29/26 
f 17/19/17 19/21/19 27/30/27 25/28/25 
f 19/23/19 20/22/20 28/31/28 27/32/27 
f 20/22/20 21/24/21 29/33/29 28/31/28 
f 21/24/21 22/25/22 30/34/30 29/33/29 
f 22/25/22 23/26/23 31/35/31 30/34/30 
f 23/26/23 24/27/24 32/36/32 31/35/31 
f 24/27/24 18/20/18 26/29/26 32/36/32 
s 1
f 33/37/33 33/37/33 33/37/33 33/37/33 
f 33/37/33 33/37/33 33/37/33 33/37/33 
f 33/37/33 33/37/33 33/37/33 
f 33/37/33 33/37/33 33/37/33 
s off
f 27/30/34 28/31/34 29/33/34 26/29/34 
f 29/33/35 30/34/35 31/35/35 26/29/35 
f 31/35/35 32/36/35 26/29/35 
f 25/28/36 27/30/36 26/29/36 
# 28 polygons - 4 triangles

