# 3ds Max Wavefront OBJ Exporter v0.97b - (c)2007 guruware
# File Created: 29.11.2014 18:00:51

#
# object Spring001
#

v  0.116618 -0.111022 0.001710
v  0.100357 -0.111022 0.001710
v  0.092227 -0.125000 -0.000000
v  0.108487 -0.125000 -0.000000
v  0.100357 -0.138978 -0.001710
v  0.116618 -0.138978 -0.001710
v  0.124748 -0.125000 0.000000
v  0.083695 -0.100606 -0.081191
v  0.072198 -0.100606 -0.069694
v  0.065240 -0.114583 -0.065154
v  0.069779 -0.128561 -0.072112
v  0.081277 -0.128561 -0.083610
v  0.088235 -0.114583 -0.088149
v  0.001796 -0.090189 -0.116532
v  0.001796 -0.090189 -0.100272
v  0.000086 -0.104167 -0.092142
v  -0.001625 -0.118144 -0.100272
v  -0.001625 -0.118144 -0.116532
v  0.000086 -0.104167 -0.124662
v  -0.081106 -0.079772 -0.083610
v  -0.069608 -0.079772 -0.072112
v  -0.065068 -0.093750 -0.065154
v  -0.072027 -0.107728 -0.069694
v  -0.083524 -0.107728 -0.081191
v  -0.088064 -0.093750 -0.088149
v  -0.116447 -0.069356 -0.001710
v  -0.100186 -0.069356 -0.001710
v  -0.092056 -0.083333 0.000000
v  -0.100186 -0.097311 0.001710
v  -0.116447 -0.097311 0.001710
v  -0.124577 -0.083333 0.000000
v  -0.083524 -0.058939 0.081191
v  -0.072027 -0.058939 0.069694
v  -0.065068 -0.072917 0.065154
v  -0.069608 -0.086894 0.072112
v  -0.081106 -0.086894 0.083610
v  -0.088064 -0.072917 0.088149
v  -0.001625 -0.048522 0.116532
v  -0.001625 -0.048522 0.100272
v  0.000086 -0.062500 0.092142
v  0.001796 -0.076478 0.100272
v  0.001796 -0.076478 0.116532
v  0.000086 -0.062500 0.124662
v  0.081277 -0.038106 0.083610
v  0.069779 -0.038106 0.072112
v  0.065240 -0.052083 0.065154
v  0.072198 -0.066061 0.069694
v  0.083695 -0.066061 0.081191
v  0.088235 -0.052083 0.088149
v  0.116618 -0.027689 0.001710
v  0.100357 -0.027689 0.001710
v  0.092227 -0.041667 -0.000000
v  0.100357 -0.055644 -0.001710
v  0.116618 -0.055644 -0.001710
v  0.124748 -0.041667 -0.000000
v  0.083695 -0.017272 -0.081191
v  0.072198 -0.017272 -0.069694
v  0.065240 -0.031250 -0.065154
v  0.069779 -0.045228 -0.072112
v  0.081277 -0.045228 -0.083610
v  0.088235 -0.031250 -0.088149
v  0.001796 -0.006856 -0.116532
v  0.001796 -0.006856 -0.100272
v  0.000086 -0.020833 -0.092142
v  -0.001625 -0.034811 -0.100272
v  -0.001625 -0.034811 -0.116532
v  0.000086 -0.020833 -0.124662
v  -0.081106 0.003561 -0.083610
v  -0.069608 0.003561 -0.072112
v  -0.065068 -0.010417 -0.065154
v  -0.072027 -0.024394 -0.069694
v  -0.083524 -0.024394 -0.081191
v  -0.088064 -0.010417 -0.088149
v  -0.116447 0.013978 -0.001710
v  -0.100186 0.013978 -0.001710
v  -0.092056 0.000000 0.000000
v  -0.100186 -0.013978 0.001710
v  -0.116447 -0.013978 0.001710
v  -0.124577 0.000000 0.000000
v  -0.083524 0.024394 0.081191
v  -0.072027 0.024394 0.069694
v  -0.065068 0.010417 0.065154
v  -0.069608 -0.003561 0.072112
v  -0.081106 -0.003561 0.083610
v  -0.088064 0.010417 0.088150
v  -0.001625 0.034811 0.116532
v  -0.001625 0.034811 0.100272
v  0.000086 0.020833 0.092142
v  0.001796 0.006856 0.100272
v  0.001796 0.006856 0.116532
v  0.000086 0.020833 0.124662
v  0.081277 0.045228 0.083610
v  0.069779 0.045228 0.072112
v  0.065240 0.031250 0.065154
v  0.072198 0.017272 0.069694
v  0.083695 0.017272 0.081191
v  0.088235 0.031250 0.088149
v  0.116618 0.055644 0.001710
v  0.100357 0.055644 0.001710
v  0.092227 0.041667 -0.000000
v  0.100357 0.027689 -0.001710
v  0.116618 0.027689 -0.001710
v  0.124748 0.041667 -0.000000
v  0.083695 0.066061 -0.081191
v  0.072198 0.066061 -0.069694
v  0.065240 0.052083 -0.065154
v  0.069779 0.038106 -0.072112
v  0.081277 0.038106 -0.083610
v  0.088235 0.052083 -0.088149
v  0.001796 0.076478 -0.116532
v  0.001796 0.076478 -0.100272
v  0.000086 0.062500 -0.092142
v  -0.001625 0.048522 -0.100272
v  -0.001625 0.048522 -0.116532
v  0.000086 0.062500 -0.124662
v  -0.081106 0.086894 -0.083610
v  -0.069608 0.086894 -0.072112
v  -0.065068 0.072917 -0.065154
v  -0.072027 0.058939 -0.069694
v  -0.083524 0.058939 -0.081191
v  -0.088064 0.072917 -0.088149
v  -0.116447 0.097311 -0.001710
v  -0.100186 0.097311 -0.001710
v  -0.092056 0.083333 -0.000000
v  -0.100186 0.069356 0.001710
v  -0.116447 0.069356 0.001710
v  -0.124577 0.083333 -0.000000
v  -0.083524 0.107728 0.081191
v  -0.072026 0.107728 0.069694
v  -0.065068 0.093750 0.065154
v  -0.069608 0.079772 0.072112
v  -0.081106 0.079772 0.083610
v  -0.088064 0.093750 0.088150
v  -0.001624 0.118144 0.116532
v  -0.001624 0.118144 0.100272
v  0.000086 0.104167 0.092142
v  0.001796 0.090189 0.100272
v  0.001796 0.090189 0.116532
v  0.000086 0.104167 0.124662
v  0.081277 0.128561 0.083610
v  0.069779 0.128561 0.072112
v  0.065239 0.114583 0.065154
v  0.072198 0.100606 0.069694
v  0.083695 0.100606 0.081191
v  0.088235 0.114583 0.088150
v  0.116618 0.138978 0.001710
v  0.100357 0.138978 0.001710
v  0.092227 0.125000 -0.000000
v  0.100357 0.111022 -0.001710
v  0.116618 0.111022 -0.001710
v  0.124748 0.125000 -0.000000
v  0.108487 0.125000 -0.000000
# 152 vertices

vn -0.000000 -0.121444 0.992598
vn 0.000000 -0.121444 0.992598
vn 0.570100 0.813313 -0.116226
vn 0.487872 0.806120 -0.334889
vn -0.191408 0.909855 0.368140
vn -0.390754 0.873422 0.290593
vn -0.707107 -0.000000 0.707107
vn -0.921544 -0.051543 0.384837
vn -0.368140 -0.909855 0.191408
vn -0.389072 -0.920072 0.045726
vn 0.334889 -0.806120 -0.487872
vn 0.563858 -0.757770 -0.328405
vn 0.707107 0.000000 -0.707107
vn 0.927878 0.041957 -0.370517
vn 0.108175 0.806120 -0.581780
vn 0.124968 0.909855 0.395660
vn -0.000000 -0.000000 1.000000
vn -0.124968 -0.909855 0.395660
vn -0.108175 -0.806120 -0.581780
vn -0.000000 0.000000 -1.000000
vn -0.334889 0.806120 -0.487872
vn 0.368140 0.909855 0.191408
vn 0.707107 -0.000000 0.707107
vn 0.191408 -0.909855 0.368140
vn -0.487872 -0.806120 -0.334889
vn -0.707107 0.000000 -0.707107
vn -0.581780 0.806120 -0.108175
vn 0.395660 0.909855 -0.124968
vn 1.000000 -0.000000 0.000000
vn 0.395660 -0.909855 0.124968
vn -0.581780 -0.806120 0.108175
vn -1.000000 0.000000 0.000000
vn -0.487872 0.806120 0.334889
vn 0.191408 0.909855 -0.368140
vn 0.707107 -0.000000 -0.707107
vn 0.368140 -0.909855 -0.191408
vn -0.334889 -0.806120 0.487872
vn -0.707107 0.000000 0.707107
vn -0.108175 0.806120 0.581780
vn -0.124968 0.909855 -0.395660
vn 0.000000 -0.000000 -1.000000
vn 0.124968 -0.909855 -0.395660
vn 0.108175 -0.806120 0.581780
vn 0.334889 0.806120 0.487872
vn -0.368140 0.909855 -0.191408
vn -0.707107 -0.000000 -0.707107
vn -0.191408 -0.909855 -0.368140
vn 0.487872 -0.806120 0.334889
vn 0.581780 0.806120 0.108175
vn -0.395660 0.909855 0.124968
vn -1.000000 -0.000000 0.000000
vn -0.395660 -0.909855 -0.124968
vn 0.581780 -0.806120 -0.108175
vn 1.000000 0.000000 -0.000000
vn -0.191409 0.909855 0.368140
vn 0.000000 -0.000000 1.000000
vn -0.000000 -0.000000 -1.000000
vn -0.334890 0.806120 -0.487872
vn 1.000000 -0.000000 -0.000000
vn -0.108175 0.806121 0.581780
vn 0.487872 -0.806121 0.334889
vn 0.707107 0.000000 0.707107
vn -0.581780 0.806121 -0.108175
vn -0.487872 0.806120 0.334890
vn 0.707106 -0.000000 -0.707107
vn 0.368139 -0.909855 -0.191408
vn -0.334889 -0.806121 0.487872
vn -0.707106 -0.000000 0.707107
vn -0.000001 -0.000000 -1.000000
vn 0.108176 -0.806120 0.581780
vn 0.000001 -0.000000 1.000000
vn 0.334890 0.806120 0.487872
vn -0.707107 -0.000001 -0.707107
vn 0.563857 0.757770 0.328405
vn -0.389072 0.920072 -0.045726
vn -0.921544 0.051542 -0.384837
vn -0.390754 -0.873423 -0.290593
vn 0.570100 -0.813313 0.116225
vn 0.927878 -0.041957 0.370517
vn -0.000000 0.121444 -0.992598
# 80 vertex normals

vt 0.000000 0.000000 0.500000
vt 0.000000 0.166667 0.500000
vt 0.000000 0.333333 0.500000
vt 0.000000 0.000000 0.000000
vt 0.000000 0.500000 0.500000
vt 0.000000 0.666667 0.500000
vt 0.000000 0.833333 0.500000
vt 0.000000 0.999000 0.000000
vt 0.041667 0.000000 0.500000
vt 0.041667 0.166667 0.500000
vt 0.041667 0.333333 0.500000
vt 0.041667 0.500000 0.500000
vt 0.041667 0.666667 0.500000
vt 0.041667 0.833333 0.500000
vt 0.041667 0.999000 0.000000
vt 0.083333 0.000000 0.500000
vt 0.083333 0.166667 0.500000
vt 0.083333 0.333333 0.500000
vt 0.083333 0.500000 0.500000
vt 0.083333 0.666667 0.500000
vt 0.083333 0.833333 0.500000
vt 0.083333 0.999000 0.000000
vt 0.125000 0.000000 0.500000
vt 0.125000 0.166667 0.500000
vt 0.125000 0.333333 0.500000
vt 0.125000 0.500000 0.500000
vt 0.125000 0.666667 0.500000
vt 0.125000 0.833333 0.500000
vt 0.125000 0.999000 0.000000
vt 0.166667 0.000000 0.500000
vt 0.166667 0.166667 0.500000
vt 0.166667 0.333333 0.500000
vt 0.166667 0.500000 0.500000
vt 0.166667 0.666667 0.500000
vt 0.166667 0.833333 0.500000
vt 0.166667 0.999000 0.000000
vt 0.208333 0.000000 0.500000
vt 0.208333 0.166667 0.500000
vt 0.208333 0.333333 0.500000
vt 0.208333 0.500000 0.500000
vt 0.208333 0.666667 0.500000
vt 0.208333 0.833333 0.500000
vt 0.208333 0.999000 0.000000
vt 0.250000 0.000000 0.500000
vt 0.250000 0.166667 0.500000
vt 0.250000 0.333333 0.500000
vt 0.250000 0.500000 0.500000
vt 0.250000 0.666667 0.500000
vt 0.250000 0.833333 0.500000
vt 0.250000 0.999000 0.000000
vt 0.291666 0.000000 0.500000
vt 0.291666 0.166667 0.500000
vt 0.291666 0.333333 0.500000
vt 0.291666 0.500000 0.500000
vt 0.291666 0.666667 0.500000
vt 0.291666 0.833333 0.500000
vt 0.291666 0.999000 0.000000
vt 0.333333 0.000000 0.500000
vt 0.333333 0.166667 0.500000
vt 0.333333 0.333333 0.500000
vt 0.333333 0.500000 0.500000
vt 0.333333 0.666667 0.500000
vt 0.333333 0.833333 0.500000
vt 0.333333 0.999000 0.000000
vt 0.375000 0.000000 0.500000
vt 0.375000 0.166667 0.500000
vt 0.375000 0.333333 0.500000
vt 0.375000 0.500000 0.500000
vt 0.375000 0.666667 0.500000
vt 0.375000 0.833333 0.500000
vt 0.375000 0.999000 0.000000
vt 0.416666 0.000000 0.500000
vt 0.416666 0.166667 0.500000
vt 0.416666 0.333333 0.500000
vt 0.416666 0.500000 0.500000
vt 0.416666 0.666667 0.500000
vt 0.416666 0.833333 0.500000
vt 0.416666 0.999000 0.000000
vt 0.458333 0.000000 0.500000
vt 0.458333 0.166667 0.500000
vt 0.458333 0.333333 0.500000
vt 0.458333 0.500000 0.500000
vt 0.458333 0.666667 0.500000
vt 0.458333 0.833333 0.500000
vt 0.458333 0.999000 0.000000
vt 0.499999 0.000000 0.500000
vt 0.499999 0.166667 0.500000
vt 0.499999 0.333333 0.500000
vt 0.499999 0.500000 0.500000
vt 0.499999 0.666667 0.500000
vt 0.499999 0.833333 0.500000
vt 0.499999 0.999000 0.000000
vt 0.541666 0.000000 0.500000
vt 0.541666 0.166667 0.500000
vt 0.541666 0.333333 0.500000
vt 0.541666 0.500000 0.500000
vt 0.541666 0.666667 0.500000
vt 0.541666 0.833333 0.500000
vt 0.541666 0.999000 0.000000
vt 0.583333 0.000000 0.500000
vt 0.583333 0.166667 0.500000
vt 0.583333 0.333333 0.500000
vt 0.583333 0.500000 0.500000
vt 0.583333 0.666667 0.500000
vt 0.583333 0.833333 0.500000
vt 0.583333 0.999000 0.000000
vt 0.624999 0.000000 0.500000
vt 0.624999 0.166667 0.500000
vt 0.624999 0.333333 0.500000
vt 0.624999 0.500000 0.500000
vt 0.624999 0.666667 0.500000
vt 0.624999 0.833333 0.500000
vt 0.624999 0.999000 0.000000
vt 0.666666 0.000000 0.500000
vt 0.666666 0.166667 0.500000
vt 0.666666 0.333333 0.500000
vt 0.666666 0.500000 0.500000
vt 0.666666 0.666667 0.500000
vt 0.666666 0.833333 0.500000
vt 0.666666 0.999000 0.000000
vt 0.708333 0.000000 0.500000
vt 0.708333 0.166667 0.500000
vt 0.708333 0.333333 0.500000
vt 0.708333 0.500000 0.500000
vt 0.708333 0.666667 0.500000
vt 0.708333 0.833333 0.500000
vt 0.708333 0.999000 0.000000
vt 0.749999 0.000000 0.500000
vt 0.749999 0.166667 0.500000
vt 0.749999 0.333333 0.500000
vt 0.749999 0.500000 0.500000
vt 0.749999 0.666667 0.500000
vt 0.749999 0.833333 0.500000
vt 0.749999 0.999000 0.000000
vt 0.791666 0.000000 0.500000
vt 0.791666 0.166667 0.500000
vt 0.791666 0.333333 0.500000
vt 0.791666 0.500000 0.500000
vt 0.791666 0.666667 0.500000
vt 0.791666 0.833333 0.500000
vt 0.791666 0.999000 0.000000
vt 0.833332 0.000000 0.500000
vt 0.833332 0.166667 0.500000
vt 0.833332 0.333333 0.500000
vt 0.833332 0.500000 0.500000
vt 0.833332 0.666667 0.500000
vt 0.833332 0.833333 0.500000
vt 0.833332 0.999000 0.000000
vt 0.874999 0.000000 0.500000
vt 0.874999 0.166667 0.500000
vt 0.874999 0.333333 0.500000
vt 0.874999 0.500000 0.500000
vt 0.874999 0.666667 0.500000
vt 0.874999 0.833333 0.500000
vt 0.874999 0.999000 0.000000
vt 0.916666 0.000000 0.500000
vt 0.916666 0.166667 0.500000
vt 0.916666 0.333333 0.500000
vt 0.916666 0.500000 0.500000
vt 0.916666 0.666667 0.500000
vt 0.916666 0.833333 0.500000
vt 0.916666 0.999000 0.000000
vt 0.958332 0.000000 0.500000
vt 0.958332 0.166667 0.500000
vt 0.958332 0.333333 0.500000
vt 0.958332 0.500000 0.500000
vt 0.958332 0.666667 0.500000
vt 0.958332 0.833333 0.500000
vt 0.958332 0.999000 0.000000
vt 0.999999 0.000000 0.500000
vt 0.999999 0.166667 0.500000
vt 0.999999 0.333333 0.500000
vt 0.999999 0.500000 0.500000
vt 0.999999 0.666667 0.500000
vt 0.999999 0.833333 0.500000
vt 0.999999 0.999000 0.000000
vt 1.000000 1.165667 0.500000
vt 1.000000 1.000000 1.000000
# 178 texture coords

g Spring001
s 1
f 1/1/1 2/2/1 3/3/1 4/4/1 
f 3/3/1 5/5/2 6/6/2 4/4/1 
f 6/6/2 7/7/2 1/8/1 4/4/1 
s 2
f 1/1/3 8/9/4 9/10/5 2/2/6 
f 2/2/6 9/10/5 10/11/7 3/3/8 
f 3/3/8 10/11/7 11/12/9 5/5/10 
f 5/5/10 11/12/9 12/13/11 6/6/12 
f 6/6/12 12/13/11 13/14/13 7/7/14 
f 7/7/14 13/14/13 8/15/4 1/8/3 
f 8/9/4 14/16/15 15/17/16 9/10/5 
f 9/10/5 15/17/16 16/18/17 10/11/7 
f 10/11/7 16/18/17 17/19/18 11/12/9 
f 11/12/9 17/19/18 18/20/19 12/13/11 
f 12/13/11 18/20/19 19/21/20 13/14/13 
f 13/14/13 19/21/20 14/22/15 8/15/4 
f 14/16/15 20/23/21 21/24/22 15/17/16 
f 15/17/16 21/24/22 22/25/23 16/18/17 
f 16/18/17 22/25/23 23/26/24 17/19/18 
f 17/19/18 23/26/24 24/27/25 18/20/19 
f 18/20/19 24/27/25 25/28/26 19/21/20 
f 19/21/20 25/28/26 20/29/21 14/22/15 
f 20/23/21 26/30/27 27/31/28 21/24/22 
f 21/24/22 27/31/28 28/32/29 22/25/23 
f 22/25/23 28/32/29 29/33/30 23/26/24 
f 23/26/24 29/33/30 30/34/31 24/27/25 
f 24/27/25 30/34/31 31/35/32 25/28/26 
f 25/28/26 31/35/32 26/36/27 20/29/21 
f 26/30/27 32/37/33 33/38/34 27/31/28 
f 27/31/28 33/38/34 34/39/35 28/32/29 
f 28/32/29 34/39/35 35/40/36 29/33/30 
f 29/33/30 35/40/36 36/41/37 30/34/31 
f 30/34/31 36/41/37 37/42/38 31/35/32 
f 31/35/32 37/42/38 32/43/33 26/36/27 
f 32/37/33 38/44/39 39/45/40 33/38/34 
f 33/38/34 39/45/40 40/46/41 34/39/35 
f 34/39/35 40/46/41 41/47/42 35/40/36 
f 35/40/36 41/47/42 42/48/43 36/41/37 
f 36/41/37 42/48/43 43/49/17 37/42/38 
f 37/42/38 43/49/17 38/50/39 32/43/33 
f 38/44/39 44/51/44 45/52/45 39/45/40 
f 39/45/40 45/52/45 46/53/46 40/46/41 
f 40/46/41 46/53/46 47/54/47 41/47/42 
f 41/47/42 47/54/47 48/55/48 42/48/43 
f 42/48/43 48/55/48 49/56/23 43/49/17 
f 43/49/17 49/56/23 44/57/44 38/50/39 
f 44/51/44 50/58/49 51/59/50 45/52/45 
f 45/52/45 51/59/50 52/60/51 46/53/46 
f 46/53/46 52/60/51 53/61/52 47/54/47 
f 47/54/47 53/61/52 54/62/53 48/55/48 
f 48/55/48 54/62/53 55/63/54 49/56/23 
f 49/56/23 55/63/54 50/64/49 44/57/44 
f 50/58/49 56/65/4 57/66/55 51/59/50 
f 51/59/50 57/66/55 58/67/7 52/60/51 
f 52/60/51 58/67/7 59/68/9 53/61/52 
f 53/61/52 59/68/9 60/69/11 54/62/53 
f 54/62/53 60/69/11 61/70/13 55/63/54 
f 55/63/54 61/70/13 56/71/4 50/64/49 
f 56/65/4 62/72/15 63/73/16 57/66/55 
f 57/66/55 63/73/16 64/74/56 58/67/7 
f 58/67/7 64/74/56 65/75/18 59/68/9 
f 59/68/9 65/75/18 66/76/19 60/69/11 
f 60/69/11 66/76/19 67/77/57 61/70/13 
f 61/70/13 67/77/57 62/78/15 56/71/4 
f 62/72/15 68/79/58 69/80/22 63/73/16 
f 63/73/16 69/80/22 70/81/23 64/74/56 
f 64/74/56 70/81/23 71/82/24 65/75/18 
f 65/75/18 71/82/24 72/83/25 66/76/19 
f 66/76/19 72/83/25 73/84/26 67/77/57 
f 67/77/57 73/84/26 68/85/58 62/78/15 
f 68/79/58 74/86/27 75/87/28 69/80/22 
f 69/80/22 75/87/28 76/88/59 70/81/23 
f 70/81/23 76/88/59 77/89/30 71/82/24 
f 71/82/24 77/89/30 78/90/31 72/83/25 
f 72/83/25 78/90/31 79/91/32 73/84/26 
f 73/84/26 79/91/32 74/92/27 68/85/58 
f 74/86/27 80/93/33 81/94/34 75/87/28 
f 75/87/28 81/94/34 82/95/13 76/88/59 
f 76/88/59 82/95/13 83/96/36 77/89/30 
f 77/89/30 83/96/36 84/97/37 78/90/31 
f 78/90/31 84/97/37 85/98/38 79/91/32 
f 79/91/32 85/98/38 80/99/33 74/92/27 
f 80/93/33 86/100/60 87/101/40 81/94/34 
f 81/94/34 87/101/40 88/102/41 82/95/13 
f 82/95/13 88/102/41 89/103/42 83/96/36 
f 83/96/36 89/103/42 90/104/43 84/97/37 
f 84/97/37 90/104/43 91/105/17 85/98/38 
f 85/98/38 91/105/17 86/106/60 80/99/33 
f 86/100/60 92/107/44 93/108/45 87/101/40 
f 87/101/40 93/108/45 94/109/46 88/102/41 
f 88/102/41 94/109/46 95/110/47 89/103/42 
f 89/103/42 95/110/47 96/111/61 90/104/43 
f 90/104/43 96/111/61 97/112/62 91/105/17 
f 91/105/17 97/112/62 92/113/44 86/106/60 
f 92/107/44 98/114/49 99/115/50 93/108/45 
f 93/108/45 99/115/50 100/116/51 94/109/46 
f 94/109/46 100/116/51 101/117/52 95/110/47 
f 95/110/47 101/117/52 102/118/53 96/111/61 
f 96/111/61 102/118/53 103/119/59 97/112/62 
f 97/112/62 103/119/59 98/120/49 92/113/44 
f 98/114/49 104/121/4 105/122/5 99/115/50 
f 99/115/50 105/122/5 106/123/7 100/116/51 
f 100/116/51 106/123/7 107/124/9 101/117/52 
f 101/117/52 107/124/9 108/125/11 102/118/53 
f 102/118/53 108/125/11 109/126/35 103/119/59 
f 103/119/59 109/126/35 104/127/4 98/120/49 
f 104/121/4 110/128/15 111/129/16 105/122/5 
f 105/122/5 111/129/16 112/130/56 106/123/7 
f 106/123/7 112/130/56 113/131/18 107/124/9 
f 107/124/9 113/131/18 114/132/19 108/125/11 
f 108/125/11 114/132/19 115/133/20 109/126/35 
f 109/126/35 115/133/20 110/134/15 104/127/4 
f 110/128/15 116/135/21 117/136/22 111/129/16 
f 111/129/16 117/136/22 118/137/23 112/130/56 
f 112/130/56 118/137/23 119/138/24 113/131/18 
f 113/131/18 119/138/24 120/139/25 114/132/19 
f 114/132/19 120/139/25 121/140/26 115/133/20 
f 115/133/20 121/140/26 116/141/21 110/134/15 
f 116/135/21 122/142/63 123/143/28 117/136/22 
f 117/136/22 123/143/28 124/144/59 118/137/23 
f 118/137/23 124/144/59 125/145/30 119/138/24 
f 119/138/24 125/145/30 126/146/31 120/139/25 
f 120/139/25 126/146/31 127/147/32 121/140/26 
f 121/140/26 127/147/32 122/148/63 116/141/21 
f 122/142/63 128/149/64 129/150/34 123/143/28 
f 123/143/28 129/150/34 130/151/65 124/144/59 
f 124/144/59 130/151/65 131/152/66 125/145/30 
f 125/145/30 131/152/66 132/153/67 126/146/31 
f 126/146/31 132/153/67 133/154/68 127/147/32 
f 127/147/32 133/154/68 128/155/64 122/148/63 
f 128/149/64 134/156/39 135/157/40 129/150/34 
f 129/150/34 135/157/40 136/158/69 130/151/65 
f 130/151/65 136/158/69 137/159/42 131/152/66 
f 131/152/66 137/159/42 138/160/70 132/153/67 
f 132/153/67 138/160/70 139/161/71 133/154/68 
f 133/154/68 139/161/71 134/162/39 128/155/64 
f 134/156/39 140/163/72 141/164/45 135/157/40 
f 135/157/40 141/164/45 142/165/73 136/158/69 
f 136/158/69 142/165/73 143/166/47 137/159/42 
f 137/159/42 143/166/47 144/167/48 138/160/70 
f 138/160/70 144/167/48 145/168/23 139/161/71 
f 139/161/71 145/168/23 140/169/72 134/162/39 
f 140/163/72 146/170/74 147/171/75 141/164/45 
f 141/164/45 147/171/75 148/172/76 142/165/73 
f 142/165/73 148/172/76 149/173/77 143/166/47 
f 143/166/47 149/173/77 150/174/78 144/167/48 
f 144/167/48 150/174/78 151/175/79 145/168/23 
f 145/168/23 151/175/79 146/176/74 140/169/72 
s 1
f 147/177/80 146/176/80 151/175/80 152/178/80 
f 148/172/80 147/171/80 152/178/80 149/173/80 
f 150/174/80 149/173/80 152/178/80 151/175/80 
# 150 polygons

